<svg width="288" height="228" viewBox="0 0 288 228" fill="none" xmlns="http://www.w3.org/2000/svg">
<path fill-rule="evenodd" clip-rule="evenodd" d="M12.4203 197.037L87.9221 14.7593C91.4052 6.35012 99.611 0.867188 108.713 0.867188C108.898 0.867188 109.083 0.869358 109.266 0.873672C109.45 0.869358 109.634 0.867188 109.819 0.867188C118.921 0.867188 127.078 8.1889 130.561 16.5981L206.112 197.037C212.1 211.492 201.476 227.392 185.83 227.392C177.002 227.392 169.033 222.105 165.602 213.971L125.033 117.796C119.15 103.847 99.3829 103.847 93.499 117.796L52.9305 213.971C49.4996 222.105 41.5306 227.392 32.7029 227.392C17.0569 227.392 6.43289 211.492 12.4203 197.037Z" fill="url(#paint0_linear_1069_6234)"/>
<path d="M88.0751 14.7593L12.5734 197.037C6.58596 211.492 17.21 227.392 32.8559 227.392C41.6836 227.392 49.6527 222.104 53.0836 213.971L118.628 58.5861L129.654 31.9895C135.798 17.1713 124.907 0.867188 108.866 0.867188C99.7641 0.867188 91.5583 6.35013 88.0751 14.7593Z" fill="#151E35" stroke="#151E35" stroke-width="0.629236" stroke-linecap="round" stroke-linejoin="round"/>
<path d="M199.507 14.7593L275.009 197.037C280.996 211.492 270.372 227.392 254.726 227.392C245.898 227.392 237.929 222.104 234.498 213.971L168.954 58.5861L157.928 31.9895C151.784 17.1713 162.675 0.867188 178.716 0.867188C187.818 0.867188 196.024 6.35013 199.507 14.7593Z" fill="#151E35"/>
<defs>
<linearGradient id="paint0_linear_1069_6234" x1="113.692" y1="67.4324" x2="255.379" y2="127.762" gradientUnits="userSpaceOnUse">
<stop stop-color="#3F2199"/>
<stop offset="0.162555" stop-color="#5C2EE8"/>
</linearGradient>
</defs>
</svg>
