<svg width="288" height="228" viewBox="0 0 288 228" fill="none" xmlns="http://www.w3.org/2000/svg">
<path fill-rule="evenodd" clip-rule="evenodd" d="M12.4203 197.027L87.9221 14.7495C91.4052 6.34036 99.611 0.857422 108.713 0.857422C108.898 0.857422 109.083 0.859593 109.266 0.863907C109.45 0.859593 109.634 0.857422 109.819 0.857422C118.921 0.857422 127.078 8.17914 130.561 16.5883L206.112 197.027C212.1 211.482 201.476 227.382 185.83 227.382C177.002 227.382 169.033 222.095 165.602 213.961L125.033 117.787C119.15 103.838 99.3829 103.838 93.499 117.787L52.9305 213.961C49.4996 222.095 41.5306 227.382 32.7029 227.382C17.0569 227.382 6.43289 211.482 12.4203 197.027Z" fill="white"/>
<path d="M88.0751 14.7495L12.5734 197.027C6.58596 211.482 17.21 227.382 32.8559 227.382C41.6836 227.382 49.6527 222.095 53.0836 213.961L118.628 58.5763L129.654 31.9797C135.798 17.1615 124.907 0.857422 108.866 0.857422C99.7641 0.857422 91.5583 6.34037 88.0751 14.7495Z" fill="white" stroke="white" stroke-width="0.629236" stroke-linecap="round" stroke-linejoin="round"/>
<path d="M199.507 14.7495L275.009 197.027C280.996 211.482 270.372 227.382 254.726 227.382C245.898 227.382 237.929 222.095 234.498 213.961L168.954 58.5763L157.928 31.9797C151.784 17.1615 162.675 0.857422 178.716 0.857422C187.818 0.857422 196.024 6.34037 199.507 14.7495Z" fill="white"/>
</svg>
