<svg width="288" height="228" viewBox="0 0 288 228" fill="none" xmlns="http://www.w3.org/2000/svg">
<path fill-rule="evenodd" clip-rule="evenodd" d="M12.4203 197.047L87.9221 14.7691C91.4052 6.35989 99.611 0.876953 108.713 0.876953C108.898 0.876953 109.083 0.879124 109.266 0.883438C109.45 0.879124 109.634 0.876953 109.819 0.876953C118.921 0.876953 127.078 8.19867 130.561 16.6078L206.112 197.047C212.1 211.502 201.476 227.402 185.83 227.402C177.002 227.402 169.033 222.114 165.602 213.981L125.034 117.806C119.15 103.857 99.3829 103.857 93.499 117.806L52.9305 213.981C49.4996 222.114 41.5306 227.402 32.7029 227.402C17.0569 227.402 6.43289 211.502 12.4203 197.047Z" fill="url(#paint0_linear_1069_6240)"/>
<path d="M88.0751 14.7691L12.5734 197.047C6.58596 211.502 17.21 227.402 32.8559 227.402C41.6836 227.402 49.6527 222.114 53.0836 213.981L118.628 58.5958L129.654 31.9992C135.798 17.181 124.907 0.876953 108.866 0.876953C99.7641 0.876953 91.5583 6.3599 88.0751 14.7691Z" fill="white" stroke="white" stroke-width="0.629236" stroke-linecap="round" stroke-linejoin="round"/>
<path d="M199.507 14.7691L275.009 197.047C280.996 211.502 270.372 227.402 254.726 227.402C245.898 227.402 237.929 222.114 234.498 213.981L168.954 58.5958L157.928 31.9992C151.784 17.181 162.675 0.876953 178.716 0.876953C187.818 0.876953 196.024 6.3599 199.507 14.7691Z" fill="white"/>
<defs>
<linearGradient id="paint0_linear_1069_6240" x1="113.692" y1="67.4422" x2="255.379" y2="127.771" gradientUnits="userSpaceOnUse">
<stop stop-color="#3F2199"/>
<stop offset="0.162555" stop-color="#5C2EE8"/>
</linearGradient>
</defs>
</svg>
