<svg width="955" height="242" viewBox="0 0 955 242" fill="none" xmlns="http://www.w3.org/2000/svg">
<g filter="url(#filter0_d_1069_6226)">
<path d="M427.873 37.6719V130.424H402.832V37.6719H371.695V15.4313H459.01V37.6719H427.873Z" fill="white"/>
<path d="M508.102 15.4313V85.9423C508.102 94.0697 509.694 100.165 512.879 104.229C516.065 108.183 521.391 110.16 528.86 110.16C536.328 110.16 541.655 108.183 544.84 104.229C548.025 100.165 549.618 94.0697 549.618 85.9423V15.4313H574V83.3064C574 91.7633 573.176 99.1219 571.529 105.382C569.991 111.533 567.41 116.64 563.786 120.704C560.161 124.657 555.494 127.623 549.782 129.6C544.071 131.467 537.097 132.4 528.86 132.4C520.623 132.4 513.648 131.467 507.937 129.6C502.226 127.623 497.558 124.657 493.934 120.704C490.309 116.64 487.673 111.533 486.026 105.382C484.488 99.1219 483.72 91.7633 483.72 83.3064V15.4313H508.102Z" fill="white"/>
<path d="M693.001 54.9702H692.507L684.105 71.7742L661.7 112.466L639.789 71.9389L631.057 53.817H630.563V130.424H607.004V15.4313H633.528L661.7 69.303H662.029L689.871 15.4313H716.56V130.424H693.001V54.9702Z" fill="white"/>
<path d="M763.074 132.236C758.131 132.236 754.452 131.028 752.036 128.611C749.729 126.085 748.576 122.9 748.576 119.056V115.761C748.576 111.917 749.729 108.787 752.036 106.371C754.452 103.845 758.131 102.582 763.074 102.582C768.016 102.582 771.64 103.845 773.947 106.371C776.363 108.787 777.571 111.917 777.571 115.761V119.056C777.571 122.9 776.363 126.085 773.947 128.611C771.64 131.028 768.016 132.236 763.074 132.236Z" fill="white"/>
<path d="M872.869 130.424C868.475 130.424 864.796 129.051 861.831 126.305C858.975 123.559 857.163 119.88 856.394 115.267H855.406C854.088 120.868 851.177 125.152 846.674 128.117C842.171 130.973 836.625 132.4 830.035 132.4C821.358 132.4 814.714 130.094 810.101 125.481C805.488 120.868 803.181 114.773 803.181 107.194C803.181 98.0785 806.476 91.324 813.066 86.9308C819.766 82.4277 828.827 80.1762 840.249 80.1762H853.923V74.7396C853.923 70.5661 852.825 67.2712 850.628 64.8549C848.431 62.3288 844.752 61.0658 839.59 61.0658C834.758 61.0658 830.913 62.1091 828.058 64.1959C825.202 66.2827 822.841 68.644 820.974 71.28L806.476 58.4298C809.991 53.2678 814.384 49.259 819.656 46.4034C825.038 43.438 832.286 41.9553 841.402 41.9553C853.703 41.9553 862.929 44.6461 869.079 50.0278C875.23 55.4095 878.305 63.2624 878.305 73.5864V111.478H886.378V130.424H872.869ZM839.096 115.432C843.16 115.432 846.619 114.553 849.475 112.796C852.44 111.039 853.923 108.183 853.923 104.229V94.0148H842.061C832.506 94.0148 827.728 97.2548 827.728 103.735V106.206C827.728 109.391 828.717 111.752 830.694 113.29C832.671 114.718 835.471 115.432 839.096 115.432Z" fill="white"/>
<path d="M923.171 34.7065C918.229 34.7065 914.604 33.6082 912.298 31.4116C910.101 29.1052 909.003 26.1947 909.003 22.6801V19.0557C909.003 15.5411 910.101 12.6856 912.298 10.4889C914.604 8.18251 918.229 7.0293 923.171 7.0293C928.114 7.0293 931.683 8.18251 933.88 10.4889C936.186 12.6856 937.339 15.5411 937.339 19.0557V22.6801C937.339 26.1947 936.186 29.1052 933.88 31.4116C931.683 33.6082 928.114 34.7065 923.171 34.7065ZM910.98 43.9322H935.362V130.424H910.98V43.9322Z" fill="white"/>
<path d="M391.997 227.143C388.977 227.143 386.403 226.594 384.275 225.495C382.181 224.397 380.379 222.921 378.869 221.068L382.885 217.31C384.155 218.854 385.545 220.021 387.055 220.81C388.599 221.6 390.35 221.994 392.306 221.994C394.606 221.994 396.339 221.48 397.506 220.45C398.673 219.42 399.256 218.03 399.256 216.28C399.256 214.873 398.844 213.757 398.021 212.933C397.197 212.11 395.738 211.492 393.645 211.08L390.453 210.514C386.952 209.862 384.326 208.712 382.576 207.064C380.825 205.417 379.95 203.152 379.95 200.269C379.95 198.69 380.242 197.266 380.825 195.996C381.443 194.691 382.284 193.61 383.348 192.752C384.446 191.86 385.768 191.173 387.312 190.693C388.857 190.212 390.59 189.972 392.512 189.972C395.223 189.972 397.575 190.453 399.565 191.414C401.556 192.34 403.255 193.696 404.662 195.481L400.595 199.085C399.668 197.883 398.536 196.922 397.197 196.202C395.858 195.481 394.194 195.12 392.203 195.12C390.144 195.12 388.548 195.532 387.415 196.356C386.283 197.18 385.716 198.381 385.716 199.96C385.716 201.47 386.18 202.603 387.106 203.358C388.033 204.078 389.475 204.628 391.431 205.005L394.623 205.674C398.227 206.361 400.852 207.528 402.5 209.175C404.181 210.823 405.022 213.088 405.022 215.971C405.022 217.653 404.731 219.18 404.147 220.553C403.564 221.926 402.706 223.11 401.573 224.105C400.475 225.066 399.119 225.821 397.506 226.371C395.893 226.885 394.057 227.143 391.997 227.143Z" fill="white"/>
<path d="M427.06 195.738V226.525H421.242V195.738H410.534V190.59H437.768V195.738H427.06Z" fill="white"/>
<path d="M451.522 190.59V212.728C451.522 215.782 452.105 218.082 453.272 219.626C454.439 221.171 456.43 221.943 459.244 221.943C462.059 221.943 464.049 221.171 465.216 219.626C466.383 218.082 466.967 215.782 466.967 212.728V190.59H472.681V211.801C472.681 214.444 472.441 216.726 471.961 218.648C471.48 220.57 470.708 222.166 469.644 223.436C468.58 224.672 467.19 225.598 465.474 226.216C463.792 226.834 461.716 227.143 459.244 227.143C456.773 227.143 454.68 226.834 452.963 226.216C451.282 225.598 449.909 224.672 448.845 223.436C447.781 222.166 447.009 220.57 446.528 218.648C446.048 216.726 445.807 214.444 445.807 211.801V190.59H451.522Z" fill="white"/>
<path d="M483.881 190.59H496.598C498.897 190.59 500.974 190.967 502.827 191.723C504.715 192.478 506.311 193.61 507.615 195.12C508.954 196.596 509.983 198.467 510.704 200.732C511.425 202.963 511.785 205.571 511.785 208.557C511.785 211.543 511.425 214.169 510.704 216.434C509.983 218.665 508.954 220.536 507.615 222.046C506.311 223.522 504.715 224.637 502.827 225.392C500.974 226.147 498.897 226.525 496.598 226.525H483.881V190.59ZM496.598 221.377C499.275 221.377 501.437 220.536 503.084 218.854C504.732 217.172 505.556 214.701 505.556 211.44V205.674C505.556 202.414 504.732 199.943 503.084 198.261C501.437 196.579 499.275 195.738 496.598 195.738H489.699V221.377H496.598Z" fill="white"/>
<path d="M521.599 226.525V190.59H544.611V195.738H527.416V205.726H543.015V210.874H527.416V221.377H544.611V226.525H521.599Z" fill="white"/>
<path d="M564.369 206.653L560.405 199.033H560.251V226.525H554.69V190.59H561.177L572.915 210.462L576.88 218.082H577.034V190.59H582.594V226.525H576.107L564.369 206.653Z" fill="white"/>
<path d="M607.351 195.738V226.525H601.533V195.738H590.825V190.59H618.059V195.738H607.351Z" fill="white"/>
<path d="M639.5 226.525V221.789H644.391V195.326H639.5V190.59H655.151V195.326H650.209V221.789H655.151V226.525H639.5Z" fill="white"/>
<path d="M674.716 206.653L670.751 199.033H670.597V226.525H665.037V190.59H671.524L683.262 210.462L687.226 218.082H687.38V190.59H692.941V226.525H686.454L674.716 206.653Z" fill="white"/>
<path d="M702.818 226.525V221.789H707.709V195.326H702.818V190.59H718.469V195.326H713.527V221.789H718.469V226.525H702.818Z" fill="white"/>
<path d="M741.387 195.738V226.525H735.57V195.738H724.861V190.59H752.096V195.738H741.387Z" fill="white"/>
<path d="M758.494 226.525V221.789H763.385V195.326H758.494V190.59H774.145V195.326H769.203V221.789H774.145V226.525H758.494Z" fill="white"/>
<path d="M806.477 226.525L803.234 216.795H789.797L786.656 226.525H780.736L792.989 190.59H800.299L812.552 226.525H806.477ZM796.644 195.944H796.387L791.187 211.801H801.792L796.644 195.944Z" fill="white"/>
<path d="M830.658 195.738V226.525H824.84V195.738H814.132V190.59H841.366V195.738H830.658Z" fill="white"/>
<path d="M847.765 226.525V221.789H852.656V195.326H847.765V190.59H863.416V195.326H858.473V221.789H863.416V226.525H847.765Z" fill="white"/>
<path d="M881.59 226.525L869.8 190.59H875.824L881.539 208.352L884.988 220.862H885.194L888.695 208.352L894.409 190.59H900.278L888.334 226.525H881.59Z" fill="white"/>
<path d="M908.203 226.525V190.59H931.216V195.738H914.021V205.726H929.62V210.874H914.021V221.377H931.216V226.525H908.203Z" fill="white"/>
<path fill-rule="evenodd" clip-rule="evenodd" d="M12.4203 203.027L87.9221 20.7495C91.4053 12.3404 99.611 6.85742 108.713 6.85742C108.898 6.85742 109.083 6.85959 109.266 6.86391C109.45 6.85959 109.634 6.85742 109.819 6.85742C118.921 6.85742 127.078 14.1791 130.561 22.5883L206.112 203.027C212.1 217.482 201.476 233.382 185.83 233.382C177.002 233.382 169.033 228.095 165.602 219.961L125.034 123.787C119.15 109.838 99.3829 109.838 93.499 123.787L52.9305 219.961C49.4996 228.095 41.5306 233.382 32.7029 233.382C17.0569 233.382 6.43289 217.482 12.4203 203.027Z" fill="white"/>
<path d="M88.0751 20.7495L12.5734 203.027C6.58596 217.482 17.21 233.382 32.8559 233.382C41.6836 233.382 49.6527 228.095 53.0836 219.961L118.628 64.5763L129.654 37.9797C135.798 23.1615 124.907 6.85742 108.866 6.85742C99.7641 6.85742 91.5583 12.3404 88.0751 20.7495Z" fill="white" stroke="white" stroke-width="0.629236" stroke-linecap="round" stroke-linejoin="round"/>
<path d="M199.507 20.7495L275.009 203.027C280.996 217.482 270.372 233.382 254.726 233.382C245.898 233.382 237.929 228.095 234.498 219.961L168.954 64.5763L157.928 37.9797C151.784 23.1615 162.675 6.85742 178.716 6.85742C187.818 6.85742 196.024 12.3404 199.507 20.7495Z" fill="white"/>
</g>
<defs>
<filter id="filter0_d_1069_6226" x="-4" y="0" width="962.148" height="248.254" filterUnits="userSpaceOnUse" color-interpolation-filters="sRGB">
<feFlood flood-opacity="0" result="BackgroundImageFix"/>
<feColorMatrix in="SourceAlpha" type="matrix" values="0 0 0 0 0 0 0 0 0 0 0 0 0 0 0 0 0 0 127 0" result="hardAlpha"/>
<feOffset dy="4"/>
<feGaussianBlur stdDeviation="2"/>
<feComposite in2="hardAlpha" operator="out"/>
<feColorMatrix type="matrix" values="0 0 0 0 0 0 0 0 0 0 0 0 0 0 0 0 0 0 0.25 0"/>
<feBlend mode="normal" in2="BackgroundImageFix" result="effect1_dropShadow_1069_6226"/>
<feBlend mode="normal" in="SourceGraphic" in2="effect1_dropShadow_1069_6226" result="shape"/>
</filter>
</defs>
</svg>
