<svg width="267" height="228" viewBox="0 0 267 228" fill="none" xmlns="http://www.w3.org/2000/svg">
<path fill-rule="evenodd" clip-rule="evenodd" d="M2.42033 197.025L77.9221 14.7476C81.4052 6.3384 89.611 0.855469 98.713 0.855469C98.8981 0.855469 99.0825 0.857639 99.2662 0.861953C99.4499 0.857639 99.6343 0.855469 99.8194 0.855469C108.921 0.855469 117.078 8.17718 120.561 16.5864L196.112 197.025C202.1 211.48 191.476 227.38 175.83 227.38C167.002 227.38 159.033 222.093 155.602 213.959L115.034 117.785C109.15 103.836 89.3829 103.836 83.499 117.785L42.9305 213.959C39.4996 222.093 31.5306 227.38 22.7029 227.38C7.05691 227.38 -3.56711 211.48 2.42033 197.025Z" fill="#151E35"/>
<path d="M78.0697 14.7476L2.56792 197.025C-3.41951 211.48 7.20451 227.38 22.8505 227.38C31.6782 227.38 39.6472 222.093 43.0781 213.959L108.623 58.5743L119.649 31.9777C125.792 17.1595 114.902 0.855469 98.8606 0.855469C89.7586 0.855469 81.5528 6.33842 78.0697 14.7476Z" fill="#151E35"/>
<path d="M189.497 14.7476L264.998 197.025C270.986 211.48 260.362 227.38 244.716 227.38C235.888 227.38 227.919 222.093 224.488 213.959L158.944 58.5743L147.917 31.9777C141.774 17.1595 152.665 0.855469 168.706 0.855469C177.808 0.855469 186.013 6.33842 189.497 14.7476Z" fill="#151E35"/>
</svg>
