<svg width="955" height="242" viewBox="0 0 955 242" fill="none" xmlns="http://www.w3.org/2000/svg">
<g filter="url(#filter0_d_1069_6232)">
<path d="M427.873 37.6602V130.412H402.832V37.6602H371.695V15.4196H459.01V37.6602H427.873Z" fill="#151E35"/>
<path d="M508.102 15.4196V85.9306C508.102 94.058 509.694 100.154 512.879 104.217C516.065 108.171 521.391 110.148 528.86 110.148C536.328 110.148 541.655 108.171 544.84 104.217C548.025 100.154 549.618 94.058 549.618 85.9306V15.4196H574V83.2947C574 91.7516 573.176 99.1102 571.529 105.371C569.991 111.521 567.41 116.628 563.786 120.692C560.161 124.646 555.494 127.611 549.782 129.588C544.071 131.455 537.097 132.389 528.86 132.389C520.623 132.389 513.648 131.455 507.937 129.588C502.226 127.611 497.558 124.646 493.934 120.692C490.309 116.628 487.673 111.521 486.026 105.371C484.488 99.1102 483.72 91.7516 483.72 83.2947V15.4196H508.102Z" fill="#151E35"/>
<path d="M693.001 54.9585H692.507L684.105 71.7625L661.7 112.455L639.789 71.9272L631.057 53.8052H630.563V130.412H607.004V15.4196H633.528L661.7 69.2913H662.029L689.871 15.4196H716.56V130.412H693.001V54.9585Z" fill="#151E35"/>
<path d="M763.074 132.224C758.131 132.224 754.452 131.016 752.036 128.6C749.729 126.074 748.576 122.888 748.576 119.044V115.749C748.576 111.905 749.729 108.775 752.036 106.359C754.452 103.833 758.131 102.57 763.074 102.57C768.016 102.57 771.64 103.833 773.947 106.359C776.363 108.775 777.571 111.905 777.571 115.749V119.044C777.571 122.888 776.363 126.074 773.947 128.6C771.64 131.016 768.016 132.224 763.074 132.224Z" fill="#151E35"/>
<path d="M872.869 130.412C868.475 130.412 864.796 129.039 861.831 126.293C858.975 123.547 857.163 119.868 856.394 115.255H855.406C854.088 120.857 851.177 125.14 846.674 128.105C842.171 130.961 836.625 132.389 830.035 132.389C821.358 132.389 814.714 130.082 810.101 125.469C805.488 120.857 803.181 114.761 803.181 107.183C803.181 98.0668 806.476 91.3123 813.066 86.9191C819.766 82.416 828.827 80.1645 840.249 80.1645H853.923V74.7279C853.923 70.5544 852.825 67.2594 850.628 64.8432C848.431 62.3171 844.752 61.054 839.59 61.054C834.758 61.054 830.913 62.0974 828.058 64.1842C825.202 66.271 822.841 68.6323 820.974 71.2682L806.476 58.4181C809.991 53.2561 814.384 49.2473 819.656 46.3917C825.038 43.4263 832.286 41.9436 841.402 41.9436C853.703 41.9436 862.929 44.6344 869.079 50.0161C875.23 55.3978 878.305 63.2506 878.305 73.5747V111.466H886.378V130.412H872.869ZM839.096 115.42C843.16 115.42 846.619 114.541 849.475 112.784C852.44 111.027 853.923 108.171 853.923 104.217V94.0031H842.061C832.506 94.0031 827.728 97.2431 827.728 103.723V106.194C827.728 109.379 828.717 111.741 830.694 113.278C832.671 114.706 835.471 115.42 839.096 115.42Z" fill="#151E35"/>
<path d="M923.171 34.6948C918.229 34.6948 914.604 33.5965 912.298 31.3999C910.101 29.0934 909.003 26.1829 909.003 22.6684V19.044C909.003 15.5294 910.101 12.6738 912.298 10.4772C914.604 8.17079 918.229 7.01758 923.171 7.01758C928.114 7.01758 931.683 8.17079 933.88 10.4772C936.186 12.6738 937.339 15.5294 937.339 19.044V22.6684C937.339 26.1829 936.186 29.0934 933.88 31.3999C931.683 33.5965 928.114 34.6948 923.171 34.6948ZM910.98 43.9205H935.362V130.412H910.98V43.9205Z" fill="#151E35"/>
<path d="M391.997 227.131C388.977 227.131 386.403 226.582 384.275 225.484C382.181 224.385 380.379 222.909 378.869 221.056L382.885 217.298C384.155 218.842 385.545 220.009 387.055 220.799C388.599 221.588 390.35 221.983 392.306 221.983C394.606 221.983 396.339 221.468 397.506 220.438C398.673 219.409 399.256 218.019 399.256 216.268C399.256 214.861 398.844 213.745 398.021 212.922C397.197 212.098 395.738 211.48 393.645 211.068L390.453 210.502C386.952 209.85 384.326 208.7 382.576 207.053C380.825 205.405 379.95 203.14 379.95 200.257C379.95 198.678 380.242 197.254 380.825 195.984C381.443 194.68 382.284 193.599 383.348 192.74C384.446 191.848 385.768 191.162 387.312 190.681C388.857 190.201 390.59 189.96 392.512 189.96C395.223 189.96 397.575 190.441 399.565 191.402C401.556 192.329 403.255 193.684 404.662 195.469L400.595 199.073C399.668 197.872 398.536 196.911 397.197 196.19C395.858 195.469 394.194 195.109 392.203 195.109C390.144 195.109 388.548 195.521 387.415 196.344C386.283 197.168 385.716 198.369 385.716 199.948C385.716 201.458 386.18 202.591 387.106 203.346C388.033 204.067 389.475 204.616 391.431 204.993L394.623 205.663C398.227 206.349 400.852 207.516 402.5 209.164C404.181 210.811 405.022 213.076 405.022 215.959C405.022 217.641 404.731 219.168 404.147 220.541C403.564 221.914 402.706 223.098 401.573 224.094C400.475 225.055 399.119 225.81 397.506 226.359C395.893 226.874 394.057 227.131 391.997 227.131Z" fill="#151E35"/>
<path d="M427.06 195.726V226.513H421.242V195.726H410.534V190.578H437.768V195.726H427.06Z" fill="#151E35"/>
<path d="M451.522 190.578V212.716C451.522 215.77 452.105 218.07 453.272 219.615C454.439 221.159 456.43 221.931 459.244 221.931C462.059 221.931 464.049 221.159 465.216 219.615C466.383 218.07 466.967 215.77 466.967 212.716V190.578H472.681V211.789C472.681 214.432 472.441 216.714 471.961 218.636C471.48 220.558 470.708 222.154 469.644 223.424C468.58 224.66 467.19 225.587 465.474 226.204C463.792 226.822 461.716 227.131 459.244 227.131C456.773 227.131 454.68 226.822 452.963 226.204C451.282 225.587 449.909 224.66 448.845 223.424C447.781 222.154 447.009 220.558 446.528 218.636C446.048 216.714 445.807 214.432 445.807 211.789V190.578H451.522Z" fill="#151E35"/>
<path d="M483.881 190.578H496.598C498.897 190.578 500.974 190.956 502.827 191.711C504.715 192.466 506.311 193.599 507.615 195.109C508.954 196.585 509.983 198.455 510.704 200.72C511.425 202.951 511.785 205.56 511.785 208.546C511.785 211.532 511.425 214.157 510.704 216.423C509.983 218.654 508.954 220.524 507.615 222.034C506.311 223.51 504.715 224.626 502.827 225.381C500.974 226.136 498.897 226.513 496.598 226.513H483.881V190.578ZM496.598 221.365C499.275 221.365 501.437 220.524 503.084 218.842C504.732 217.161 505.556 214.689 505.556 211.429V205.663C505.556 202.402 504.732 199.931 503.084 198.249C501.437 196.567 499.275 195.726 496.598 195.726H489.699V221.365H496.598Z" fill="#151E35"/>
<path d="M521.599 226.513V190.578H544.611V195.726H527.416V205.714H543.015V210.862H527.416V221.365H544.611V226.513H521.599Z" fill="#151E35"/>
<path d="M564.369 206.641L560.405 199.021H560.251V226.513H554.69V190.578H561.177L572.915 210.451L576.88 218.07H577.034V190.578H582.594V226.513H576.107L564.369 206.641Z" fill="#151E35"/>
<path d="M607.351 195.726V226.513H601.533V195.726H590.825V190.578H618.059V195.726H607.351Z" fill="#151E35"/>
<path d="M639.5 226.513V221.777H644.391V195.315H639.5V190.578H655.151V195.315H650.209V221.777H655.151V226.513H639.5Z" fill="#151E35"/>
<path d="M674.716 206.641L670.751 199.021H670.597V226.513H665.037V190.578H671.524L683.262 210.451L687.226 218.07H687.38V190.578H692.941V226.513H686.454L674.716 206.641Z" fill="#151E35"/>
<path d="M702.818 226.513V221.777H707.709V195.315H702.818V190.578H718.469V195.315H713.527V221.777H718.469V226.513H702.818Z" fill="#151E35"/>
<path d="M741.387 195.726V226.513H735.57V195.726H724.861V190.578H752.096V195.726H741.387Z" fill="#151E35"/>
<path d="M758.494 226.513V221.777H763.385V195.315H758.494V190.578H774.145V195.315H769.203V221.777H774.145V226.513H758.494Z" fill="#151E35"/>
<path d="M806.477 226.513L803.234 216.783H789.797L786.656 226.513H780.736L792.989 190.578H800.299L812.552 226.513H806.477ZM796.644 195.932H796.387L791.187 211.789H801.792L796.644 195.932Z" fill="#151E35"/>
<path d="M830.658 195.726V226.513H824.84V195.726H814.132V190.578H841.366V195.726H830.658Z" fill="#151E35"/>
<path d="M847.765 226.513V221.777H852.656V195.315H847.765V190.578H863.416V195.315H858.473V221.777H863.416V226.513H847.765Z" fill="#151E35"/>
<path d="M881.59 226.513L869.8 190.578H875.824L881.539 208.34L884.988 220.85H885.194L888.695 208.34L894.409 190.578H900.278L888.334 226.513H881.59Z" fill="#151E35"/>
<path d="M908.203 226.513V190.578H931.216V195.726H914.021V205.714H929.62V210.862H914.021V221.365H931.216V226.513H908.203Z" fill="#151E35"/>
<path fill-rule="evenodd" clip-rule="evenodd" d="M12.4203 203.037L87.9221 20.7593C91.4053 12.3501 99.611 6.86719 108.713 6.86719C108.898 6.86719 109.083 6.86936 109.266 6.87367C109.45 6.86936 109.634 6.86719 109.819 6.86719C118.921 6.86719 127.078 14.1889 130.561 22.5981L206.112 203.037C212.1 217.492 201.476 233.392 185.83 233.392C177.002 233.392 169.033 228.105 165.602 219.971L125.034 123.796C119.15 109.847 99.3829 109.847 93.499 123.796L52.9305 219.971C49.4996 228.105 41.5306 233.392 32.7029 233.392C17.0569 233.392 6.43289 217.492 12.4203 203.037Z" fill="url(#paint0_linear_1069_6232)"/>
<path d="M88.0751 20.7593L12.5734 203.037C6.58596 217.492 17.21 233.392 32.8559 233.392C41.6836 233.392 49.6527 228.104 53.0836 219.971L118.628 64.5861L129.654 37.9895C135.798 23.1713 124.907 6.86719 108.866 6.86719C99.7641 6.86719 91.5583 12.3501 88.0751 20.7593Z" fill="#151E35" stroke="#151E35" stroke-width="0.629236" stroke-linecap="round" stroke-linejoin="round"/>
<path d="M199.507 20.7593L275.009 203.037C280.996 217.492 270.372 233.392 254.726 233.392C245.898 233.392 237.929 228.104 234.498 219.971L168.954 64.5861L157.928 37.9895C151.784 23.1713 162.675 6.86719 178.716 6.86719C187.818 6.86719 196.024 12.3501 199.507 20.7593Z" fill="#151E35"/>
</g>
<defs>
<filter id="filter0_d_1069_6232" x="-4" y="0" width="962.148" height="248.254" filterUnits="userSpaceOnUse" color-interpolation-filters="sRGB">
<feFlood flood-opacity="0" result="BackgroundImageFix"/>
<feColorMatrix in="SourceAlpha" type="matrix" values="0 0 0 0 0 0 0 0 0 0 0 0 0 0 0 0 0 0 127 0" result="hardAlpha"/>
<feOffset dy="4"/>
<feGaussianBlur stdDeviation="2"/>
<feComposite in2="hardAlpha" operator="out"/>
<feColorMatrix type="matrix" values="0 0 0 0 0 0 0 0 0 0 0 0 0 0 0 0 0 0 0.25 0"/>
<feBlend mode="normal" in2="BackgroundImageFix" result="effect1_dropShadow_1069_6232"/>
<feBlend mode="normal" in="SourceGraphic" in2="effect1_dropShadow_1069_6232" result="shape"/>
</filter>
<linearGradient id="paint0_linear_1069_6232" x1="113.692" y1="73.4324" x2="255.379" y2="133.762" gradientUnits="userSpaceOnUse">
<stop stop-color="#3F2199"/>
<stop offset="0.162555" stop-color="#5C2EE8"/>
</linearGradient>
</defs>
</svg>
