<svg width="955" height="242" viewBox="0 0 955 242" fill="none" xmlns="http://www.w3.org/2000/svg">
<g filter="url(#filter0_d_1069_6244)">
<path d="M427.873 37.6622V130.414H402.832V37.6622H371.695V15.4215H459.01V37.6622H427.873Z" fill="#151E35"/>
<path d="M508.102 15.4215V85.9325C508.102 94.06 509.694 100.156 512.879 104.219C516.065 108.173 521.391 110.15 528.86 110.15C536.328 110.15 541.655 108.173 544.84 104.219C548.025 100.156 549.618 94.06 549.618 85.9325V15.4215H574V83.2966C574 91.7535 573.176 99.1122 571.529 105.372C569.991 111.523 567.41 116.63 563.786 120.694C560.161 124.648 555.494 127.613 549.782 129.59C544.071 131.457 537.097 132.391 528.86 132.391C520.623 132.391 513.648 131.457 507.937 129.59C502.226 127.613 497.558 124.648 493.934 120.694C490.309 116.63 487.673 111.523 486.026 105.372C484.488 99.1122 483.72 91.7535 483.72 83.2966V15.4215H508.102Z" fill="#151E35"/>
<path d="M693.001 54.9604H692.507L684.105 71.7644L661.7 112.457L639.789 71.9292L631.057 53.8072H630.563V130.414H607.004V15.4215H633.528L661.7 69.2933H662.029L689.871 15.4215H716.56V130.414H693.001V54.9604Z" fill="#151E35"/>
<path d="M763.074 132.226C758.131 132.226 754.452 131.018 752.036 128.602C749.729 126.075 748.576 122.89 748.576 119.046V115.751C748.576 111.907 749.729 108.777 752.036 106.361C754.452 103.835 758.131 102.572 763.074 102.572C768.016 102.572 771.64 103.835 773.947 106.361C776.363 108.777 777.571 111.907 777.571 115.751V119.046C777.571 122.89 776.363 126.075 773.947 128.602C771.64 131.018 768.016 132.226 763.074 132.226Z" fill="#151E35"/>
<path d="M872.869 130.414C868.475 130.414 864.796 129.041 861.831 126.295C858.975 123.549 857.163 119.87 856.394 115.257H855.406C854.088 120.859 851.177 125.142 846.674 128.107C842.171 130.963 836.625 132.391 830.035 132.391C821.358 132.391 814.714 130.084 810.101 125.471C805.488 120.859 803.181 114.763 803.181 107.185C803.181 98.0688 806.476 91.3142 813.066 86.921C819.766 82.418 828.827 80.1665 840.249 80.1665H853.923V74.7299C853.923 70.5563 852.825 67.2614 850.628 64.8451C848.431 62.319 844.752 61.056 839.59 61.056C834.758 61.056 830.913 62.0994 828.058 64.1862C825.202 66.2729 822.841 68.6343 820.974 71.2702L806.476 58.4201C809.991 53.258 814.384 49.2492 819.656 46.3937C825.038 43.4282 832.286 41.9455 841.402 41.9455C853.703 41.9455 862.929 44.6364 869.079 50.0181C875.23 55.3997 878.305 63.2526 878.305 73.5766V111.468H886.378V130.414H872.869ZM839.096 115.422C843.16 115.422 846.619 114.543 849.475 112.786C852.44 111.029 853.923 108.173 853.923 104.219V94.0051H842.061C832.506 94.0051 827.728 97.245 827.728 103.725V106.196C827.728 109.381 828.717 111.743 830.694 113.28C832.671 114.708 835.471 115.422 839.096 115.422Z" fill="#151E35"/>
<path d="M923.171 34.6967C918.229 34.6967 914.604 33.5984 912.298 31.4018C910.101 29.0954 909.003 26.1849 909.003 22.6703V19.0459C909.003 15.5314 910.101 12.6758 912.298 10.4792C914.604 8.17275 918.229 7.01953 923.171 7.01953C928.114 7.01953 931.683 8.17275 933.88 10.4792C936.186 12.6758 937.339 15.5314 937.339 19.0459V22.6703C937.339 26.1849 936.186 29.0954 933.88 31.4018C931.683 33.5984 928.114 34.6967 923.171 34.6967ZM910.98 43.9225H935.362V130.414H910.98V43.9225Z" fill="#151E35"/>
<path d="M391.997 227.133C388.977 227.133 386.403 226.584 384.275 225.486C382.181 224.387 380.379 222.911 378.869 221.058L382.885 217.3C384.155 218.844 385.545 220.011 387.055 220.801C388.599 221.59 390.35 221.985 392.306 221.985C394.606 221.985 396.339 221.47 397.506 220.44C398.673 219.411 399.256 218.021 399.256 216.27C399.256 214.863 398.844 213.747 398.021 212.924C397.197 212.1 395.738 211.482 393.645 211.07L390.453 210.504C386.952 209.852 384.326 208.702 382.576 207.055C380.825 205.407 379.95 203.142 379.95 200.259C379.95 198.68 380.242 197.256 380.825 195.986C381.443 194.682 382.284 193.6 383.348 192.742C384.446 191.85 385.768 191.164 387.312 190.683C388.857 190.203 390.59 189.962 392.512 189.962C395.223 189.962 397.575 190.443 399.565 191.404C401.556 192.331 403.255 193.686 404.662 195.471L400.595 199.075C399.668 197.874 398.536 196.913 397.197 196.192C395.858 195.471 394.194 195.111 392.203 195.111C390.144 195.111 388.548 195.522 387.415 196.346C386.283 197.17 385.716 198.371 385.716 199.95C385.716 201.46 386.18 202.593 387.106 203.348C388.033 204.069 389.475 204.618 391.431 204.995L394.623 205.665C398.227 206.351 400.852 207.518 402.5 209.165C404.181 210.813 405.022 213.078 405.022 215.961C405.022 217.643 404.731 219.17 404.147 220.543C403.564 221.916 402.706 223.1 401.573 224.096C400.475 225.057 399.119 225.812 397.506 226.361C395.893 226.876 394.057 227.133 391.997 227.133Z" fill="#151E35"/>
<path d="M427.06 195.728V226.515H421.242V195.728H410.534V190.58H437.768V195.728H427.06Z" fill="#151E35"/>
<path d="M451.522 190.58V212.718C451.522 215.772 452.105 218.072 453.272 219.617C454.439 221.161 456.43 221.933 459.244 221.933C462.059 221.933 464.049 221.161 465.216 219.617C466.383 218.072 466.967 215.772 466.967 212.718V190.58H472.681V211.791C472.681 214.434 472.441 216.716 471.961 218.638C471.48 220.56 470.708 222.156 469.644 223.426C468.58 224.662 467.19 225.589 465.474 226.206C463.792 226.824 461.716 227.133 459.244 227.133C456.773 227.133 454.68 226.824 452.963 226.206C451.282 225.589 449.909 224.662 448.845 223.426C447.781 222.156 447.009 220.56 446.528 218.638C446.048 216.716 445.807 214.434 445.807 211.791V190.58H451.522Z" fill="#151E35"/>
<path d="M483.881 190.58H496.598C498.897 190.58 500.974 190.958 502.827 191.713C504.715 192.468 506.311 193.6 507.615 195.111C508.954 196.586 509.983 198.457 510.704 200.722C511.425 202.953 511.785 205.562 511.785 208.548C511.785 211.534 511.425 214.159 510.704 216.425C509.983 218.655 508.954 220.526 507.615 222.036C506.311 223.512 504.715 224.628 502.827 225.383C500.974 226.138 498.897 226.515 496.598 226.515H483.881V190.58ZM496.598 221.367C499.275 221.367 501.437 220.526 503.084 218.844C504.732 217.162 505.556 214.691 505.556 211.431V205.665C505.556 202.404 504.732 199.933 503.084 198.251C501.437 196.569 499.275 195.728 496.598 195.728H489.699V221.367H496.598Z" fill="#151E35"/>
<path d="M521.599 226.515V190.58H544.611V195.728H527.416V205.716H543.015V210.864H527.416V221.367H544.611V226.515H521.599Z" fill="#151E35"/>
<path d="M564.369 206.643L560.405 199.023H560.251V226.515H554.69V190.58H561.177L572.915 210.453L576.88 218.072H577.034V190.58H582.594V226.515H576.107L564.369 206.643Z" fill="#151E35"/>
<path d="M607.351 195.728V226.515H601.533V195.728H590.825V190.58H618.059V195.728H607.351Z" fill="#151E35"/>
<path d="M639.5 226.515V221.779H644.391V195.317H639.5V190.58H655.151V195.317H650.209V221.779H655.151V226.515H639.5Z" fill="#151E35"/>
<path d="M674.716 206.643L670.751 199.023H670.597V226.515H665.037V190.58H671.524L683.262 210.453L687.226 218.072H687.38V190.58H692.941V226.515H686.454L674.716 206.643Z" fill="#151E35"/>
<path d="M702.818 226.515V221.779H707.709V195.317H702.818V190.58H718.469V195.317H713.527V221.779H718.469V226.515H702.818Z" fill="#151E35"/>
<path d="M741.387 195.728V226.515H735.57V195.728H724.861V190.58H752.096V195.728H741.387Z" fill="#151E35"/>
<path d="M758.494 226.515V221.779H763.385V195.317H758.494V190.58H774.145V195.317H769.203V221.779H774.145V226.515H758.494Z" fill="#151E35"/>
<path d="M806.477 226.515L803.234 216.785H789.797L786.656 226.515H780.736L792.989 190.58H800.299L812.552 226.515H806.477ZM796.644 195.934H796.387L791.187 211.791H801.792L796.644 195.934Z" fill="#151E35"/>
<path d="M830.658 195.728V226.515H824.84V195.728H814.132V190.58H841.366V195.728H830.658Z" fill="#151E35"/>
<path d="M847.765 226.515V221.779H852.656V195.317H847.765V190.58H863.416V195.317H858.473V221.779H863.416V226.515H847.765Z" fill="#151E35"/>
<path d="M881.59 226.515L869.8 190.58H875.824L881.539 208.342L884.988 220.852H885.194L888.695 208.342L894.409 190.58H900.278L888.334 226.515H881.59Z" fill="#151E35"/>
<path d="M908.203 226.515V190.58H931.216V195.728H914.021V205.716H929.62V210.864H914.021V221.367H931.216V226.515H908.203Z" fill="#151E35"/>
<path fill-rule="evenodd" clip-rule="evenodd" d="M12.4203 203.025L87.9221 20.7476C91.4053 12.3384 99.611 6.85547 108.713 6.85547C108.898 6.85547 109.083 6.85764 109.266 6.86195C109.45 6.85764 109.634 6.85547 109.819 6.85547C118.921 6.85547 127.078 14.1772 130.561 22.5864L206.112 203.025C212.1 217.48 201.476 233.38 185.83 233.38C177.002 233.38 169.033 228.093 165.602 219.959L125.034 123.785C119.15 109.836 99.3829 109.836 93.499 123.785L52.9305 219.959C49.4996 228.093 41.5306 233.38 32.7029 233.38C17.0569 233.38 6.43289 217.48 12.4203 203.025Z" fill="#151E35"/>
<path d="M88.0697 20.7476L12.5679 203.025C6.58049 217.48 17.2045 233.38 32.8505 233.38C41.6782 233.38 49.6472 228.093 53.0781 219.959L118.623 64.5743L129.649 37.9777C135.792 23.1595 124.902 6.85547 108.861 6.85547C99.7586 6.85547 91.5528 12.3384 88.0697 20.7476Z" fill="#151E35"/>
<path d="M199.497 20.7476L274.998 203.025C280.986 217.48 270.362 233.38 254.716 233.38C245.888 233.38 237.919 228.093 234.488 219.959L168.944 64.5743L157.917 37.9777C151.774 23.1595 162.665 6.85547 178.706 6.85547C187.808 6.85547 196.013 12.3384 199.497 20.7476Z" fill="#151E35"/>
</g>
<defs>
<filter id="filter0_d_1069_6244" x="-4" y="0" width="962.148" height="248.254" filterUnits="userSpaceOnUse" color-interpolation-filters="sRGB">
<feFlood flood-opacity="0" result="BackgroundImageFix"/>
<feColorMatrix in="SourceAlpha" type="matrix" values="0 0 0 0 0 0 0 0 0 0 0 0 0 0 0 0 0 0 127 0" result="hardAlpha"/>
<feOffset dy="4"/>
<feGaussianBlur stdDeviation="2"/>
<feComposite in2="hardAlpha" operator="out"/>
<feColorMatrix type="matrix" values="0 0 0 0 0 0 0 0 0 0 0 0 0 0 0 0 0 0 0.25 0"/>
<feBlend mode="normal" in2="BackgroundImageFix" result="effect1_dropShadow_1069_6244"/>
<feBlend mode="normal" in="SourceGraphic" in2="effect1_dropShadow_1069_6244" result="shape"/>
</filter>
</defs>
</svg>
