<svg width="167" height="43" viewBox="0 0 167 43" fill="none" xmlns="http://www.w3.org/2000/svg">
<g clip-path="url(#clip0_842_2391)">
<path d="M74.7688 6.51007V22.7183H70.3928V6.51007H64.9517V2.62355H80.2099V6.51007H74.7688ZM88.7886 2.62355V14.9453C88.7886 16.3655 89.0669 17.4307 89.6235 18.1408C90.1801 18.8318 91.1109 19.1773 92.416 19.1773C93.7211 19.1773 94.652 18.8318 95.2086 18.1408C95.7651 17.4307 96.0434 16.3655 96.0434 14.9453V2.62355H100.304V14.4846C100.304 15.9625 100.16 17.2484 99.8724 18.3424C99.6037 19.4172 99.1527 20.3096 98.5193 21.0198C97.8859 21.7107 97.0702 22.2289 96.0722 22.5744C95.0742 22.9006 93.8555 23.0638 92.416 23.0638C90.9766 23.0638 89.7578 22.9006 88.7598 22.5744C87.7618 22.2289 86.9461 21.7107 86.3127 21.0198C85.6794 20.3096 85.2188 19.4172 84.9309 18.3424C84.6622 17.2484 84.5278 15.9625 84.5278 14.4846V2.62355H88.7886ZM121.1 9.53292H121.013L119.545 12.4694L115.63 19.5803L111.801 12.4982L110.275 9.3314H110.189V22.7183H106.072V2.62355H110.707L115.63 12.0376H115.687L120.553 2.62355H125.216V22.7183H121.1V9.53292ZM133.345 23.035C132.481 23.035 131.838 22.8239 131.416 22.4016C131.013 21.9602 130.811 21.4036 130.811 20.7319V20.1561C130.811 19.4843 131.013 18.9373 131.416 18.5151C131.838 18.0737 132.481 17.853 133.345 17.853C134.208 17.853 134.842 18.0737 135.245 18.5151C135.667 18.9373 135.878 19.4843 135.878 20.1561V20.7319C135.878 21.4036 135.667 21.9602 135.245 22.4016C134.842 22.8239 134.208 23.035 133.345 23.035ZM152.531 22.7183C151.763 22.7183 151.12 22.4784 150.602 21.9986C150.103 21.5188 149.787 20.8758 149.652 20.0697H149.48C149.249 21.0485 148.741 21.7971 147.954 22.3153C147.167 22.8143 146.198 23.0638 145.046 23.0638C143.53 23.0638 142.369 22.6607 141.563 21.8546C140.756 21.0485 140.353 19.9833 140.353 18.6591C140.353 17.0661 140.929 15.8857 142.081 15.118C143.251 14.3311 144.835 13.9376 146.831 13.9376H149.22V12.9876C149.22 12.2583 149.028 11.6825 148.645 11.2603C148.261 10.8188 147.618 10.5981 146.716 10.5981C145.871 10.5981 145.2 10.7804 144.701 11.1451C144.202 11.5098 143.789 11.9224 143.463 12.383L140.929 10.1375C141.543 9.23543 142.311 8.5349 143.232 8.03589C144.173 7.51769 145.439 7.25859 147.032 7.25859C149.182 7.25859 150.794 7.72881 151.869 8.66925C152.944 9.60969 153.481 10.982 153.481 12.7861V19.4076H154.892V22.7183H152.531ZM146.629 20.0985C147.34 20.0985 147.944 19.945 148.443 19.6379C148.961 19.3308 149.22 18.8318 149.22 18.1408V16.3559H147.148C145.478 16.3559 144.643 16.9221 144.643 18.0545V18.4863C144.643 19.0429 144.816 19.4555 145.161 19.7242C145.507 19.9738 145.996 20.0985 146.629 20.0985ZM161.321 5.99187C160.458 5.99187 159.824 5.79994 159.421 5.41609C159.038 5.01304 158.846 4.50443 158.846 3.89027V3.25691C158.846 2.64274 159.038 2.14373 159.421 1.75988C159.824 1.35683 160.458 1.15531 161.321 1.15531C162.185 1.15531 162.809 1.35683 163.193 1.75988C163.596 2.14373 163.797 2.64274 163.797 3.25691V3.89027C163.797 4.50443 163.596 5.01304 163.193 5.41609C162.809 5.79994 162.185 5.99187 161.321 5.99187ZM159.191 7.60405H163.452V22.7183H159.191V7.60405Z" fill="#151E35"/>
<path d="M68.4994 39.0121C67.9716 39.0121 67.5218 38.9162 67.15 38.7242C66.7841 38.5323 66.4692 38.2744 66.2053 37.9505L66.907 37.2938C67.129 37.5637 67.3719 37.7676 67.6358 37.9055C67.9057 38.0435 68.2115 38.1125 68.5534 38.1125C68.9553 38.1125 69.2582 38.0225 69.4621 37.8426C69.666 37.6626 69.768 37.4197 69.768 37.1138C69.768 36.8679 69.696 36.673 69.552 36.5291C69.4081 36.3851 69.1532 36.2772 68.7873 36.2052L68.2295 36.1062C67.6178 35.9923 67.1589 35.7913 66.8531 35.5035C66.5472 35.2156 66.3942 34.8197 66.3942 34.3159C66.3942 34.04 66.4452 33.7911 66.5472 33.5692C66.6551 33.3413 66.8021 33.1523 66.988 33.0024C67.1799 32.8465 67.4109 32.7265 67.6807 32.6425C67.9506 32.5586 68.2535 32.5166 68.5894 32.5166C69.0632 32.5166 69.4741 32.6006 69.8219 32.7685C70.1698 32.9304 70.4667 33.1673 70.7126 33.4792L70.0019 34.109C69.8399 33.8991 69.642 33.7311 69.4081 33.6052C69.1742 33.4792 68.8833 33.4162 68.5354 33.4162C68.1756 33.4162 67.8967 33.4882 67.6987 33.6322C67.5008 33.7761 67.4019 33.986 67.4019 34.2619C67.4019 34.5258 67.4828 34.7237 67.6448 34.8557C67.8067 34.9817 68.0586 35.0776 68.4005 35.1436L68.9583 35.2605C69.588 35.3805 70.0469 35.5844 70.3347 35.8723C70.6286 36.1602 70.7756 36.5561 70.7756 37.0599C70.7756 37.3537 70.7246 37.6206 70.6226 37.8606C70.5207 38.1005 70.3707 38.3074 70.1728 38.4813C69.9809 38.6493 69.744 38.7812 69.4621 38.8772C69.1802 38.9671 68.8593 39.0121 68.4994 39.0121ZM74.6266 33.5242V38.9042H73.61V33.5242H71.7387V32.6245H76.4979V33.5242H74.6266ZM78.9013 32.6245V36.4931C78.9013 37.0269 79.0033 37.4287 79.2072 37.6986C79.4111 37.9685 79.759 38.1035 80.2508 38.1035C80.7426 38.1035 81.0905 37.9685 81.2944 37.6986C81.4983 37.4287 81.6003 37.0269 81.6003 36.4931V32.6245H82.5989V36.3311C82.5989 36.793 82.5569 37.1918 82.473 37.5277C82.389 37.8636 82.254 38.1424 82.0681 38.3644C81.8822 38.5803 81.6393 38.7422 81.3394 38.8502C81.0455 38.9581 80.6826 39.0121 80.2508 39.0121C79.819 39.0121 79.4531 38.9581 79.1532 38.8502C78.8593 38.7422 78.6194 38.5803 78.4335 38.3644C78.2476 38.1424 78.1126 37.8636 78.0286 37.5277C77.9447 37.1918 77.9027 36.793 77.9027 36.3311V32.6245H78.9013ZM84.5561 32.6245H86.7782C87.1801 32.6245 87.5429 32.6905 87.8668 32.8225C88.1967 32.9544 88.4756 33.1523 88.7035 33.4162C88.9374 33.6741 89.1173 34.001 89.2433 34.3969C89.3693 34.7867 89.4322 35.2426 89.4322 35.7644C89.4322 36.2862 89.3693 36.745 89.2433 37.1408C89.1173 37.5307 88.9374 37.8576 88.7035 38.1215C88.4756 38.3794 88.1967 38.5743 87.8668 38.7062C87.5429 38.8382 87.1801 38.9042 86.7782 38.9042H84.5561V32.6245ZM86.7782 38.0045C87.2461 38.0045 87.6239 37.8576 87.9118 37.5637C88.1997 37.2698 88.3436 36.8379 88.3436 36.2682V35.2605C88.3436 34.6908 88.1997 34.2589 87.9118 33.965C87.6239 33.6711 87.2461 33.5242 86.7782 33.5242H85.5727V38.0045H86.7782ZM91.1471 38.9042V32.6245H95.1686V33.5242H92.1637V35.2695H94.8897V36.1692H92.1637V38.0045H95.1686V38.9042H91.1471ZM98.6213 35.4315L97.9285 34.1H97.9015V38.9042H96.9299V32.6245H98.0635L100.115 36.0972L100.807 37.4287H100.834V32.6245H101.806V38.9042H100.672L98.6213 35.4315ZM106.132 33.5242V38.9042H105.116V33.5242H103.244V32.6245H108.003V33.5242H106.132ZM111.75 38.9042V38.0765H112.605V33.4522H111.75V32.6245H114.485V33.4522H113.622V38.0765H114.485V38.9042H111.75ZM117.904 35.4315L117.211 34.1H117.184V38.9042H116.213V32.6245H117.346L119.398 36.0972L120.09 37.4287H120.117V32.6245H121.089V38.9042H119.955L117.904 35.4315ZM122.815 38.9042V38.0765H123.67V33.4522H122.815V32.6245H125.55V33.4522H124.686V38.0765H125.55V38.9042H122.815ZM129.555 33.5242V38.9042H128.538V33.5242H126.667V32.6245H131.426V33.5242H129.555ZM132.544 38.9042V38.0765H133.399V33.4522H132.544V32.6245H135.279V33.4522H134.416V38.0765H135.279V38.9042H132.544ZM140.929 38.9042L140.363 37.2038H138.014L137.466 38.9042H136.431L138.572 32.6245H139.85L141.991 38.9042H140.929ZM139.211 33.5602H139.166L138.257 36.3311H140.111L139.211 33.5602ZM145.155 33.5242V38.9042H144.138V33.5242H142.267V32.6245H147.026V33.5242H145.155ZM148.144 38.9042V38.0765H148.999V33.4522H148.144V32.6245H150.879V33.4522H150.016V38.0765H150.879V38.9042H148.144ZM154.055 38.9042L151.995 32.6245H153.048L154.046 35.7284L154.649 37.9145H154.685L155.297 35.7284L156.295 32.6245H157.321L155.234 38.9042H154.055ZM158.706 38.9042V32.6245H162.727V33.5242H159.722V35.2695H162.448V36.1692H159.722V38.0045H162.727V38.9042H158.706Z" fill="#151E35"/>
<path fill-rule="evenodd" clip-rule="evenodd" d="M2.16947 36.3952L15.3633 4.54239C15.972 3.0729 17.4059 2.11476 18.9965 2.11476C19.0289 2.11476 19.0611 2.11514 19.0932 2.11589C19.1253 2.11514 19.1575 2.11476 19.1899 2.11476C20.7804 2.11476 22.2057 3.39422 22.8144 4.86372L36.0169 36.3952C37.0632 38.9212 35.2067 41.6997 32.4725 41.6997C30.9299 41.6997 29.5373 40.7757 28.9378 39.3544L21.8485 22.548C20.8203 20.1104 17.3661 20.1104 16.3379 22.548L9.24859 39.3544C8.64903 40.7757 7.25645 41.6997 5.71382 41.6997C2.97971 41.6997 1.12318 38.9212 2.16947 36.3952Z" fill="url(#paint0_linear_842_2391)"/>
<path d="M15.3902 4.54239L2.19638 36.3952C1.15008 38.9212 3.00661 41.6997 5.74073 41.6997C7.28336 41.6997 8.67594 40.7757 9.27549 39.3544L20.7293 12.2011L22.6562 7.55334C23.7297 4.96388 21.8266 2.11476 19.0234 2.11476C17.4329 2.11476 15.9989 3.0729 15.3902 4.54239Z" fill="#151E35" stroke="#151E35" stroke-width="0.109958" stroke-linecap="round" stroke-linejoin="round"/>
<path d="M34.8625 4.54239L48.0563 36.3952C49.1026 38.9212 47.2461 41.6997 44.512 41.6997C42.9694 41.6997 41.5768 40.7757 40.9772 39.3544L29.5234 12.2011L27.5966 7.55334C26.523 4.96388 28.4261 2.11476 31.2293 2.11476C32.8199 2.11476 34.2538 3.0729 34.8625 4.54239Z" fill="#151E35"/>
</g>
<defs>
<linearGradient id="paint0_linear_842_2391" x1="19.8666" y1="13.747" x2="44.6262" y2="24.2894" gradientUnits="userSpaceOnUse">
<stop stop-color="#3F2199"/>
<stop offset="0.162555" stop-color="#5C2EE8"/>
</linearGradient>
<clipPath id="clip0_842_2391">
<rect width="166.737" height="41.984" fill="white" transform="translate(0 0.916016)"/>
</clipPath>
</defs>
</svg>
